<svg aria-hidden="true" style="position: absolute; width: 0; height: 0; overflow: hidden;" version="1.1" xmlns="http://www.w3.org/2000/svg" xmlns:xlink="http://www.w3.org/1999/xlink">
<defs>
<symbol id="icon-windy" viewBox="0 0 32 32">
<path d="M30.938 13.938h-5.102c-0.504-4.487-4.277-8-8.898-8-3.113 0-5.859 1.591-7.477 4h-6.523c-0.552 0-1 0.448-1 1s0.448 1 1 1h5.552c-0.226 0.638-0.374 1.306-0.45 2h-3.102c-0.552 0-1 0.448-1 1s0.448 1 1 1h3.102c0.077 0.693 0.224 1.363 0.45 2h-5.37c-0.654 0-1.182 0.448-1.182 1s0.529 1 1.182 1h6.341c1.617 2.41 4.363 4 7.477 4s5.859-1.59 7.477-4h2.341c0.654 0 1.182-0.448 1.182-1s-0.529-1-1.182-1h-1.37c0.227-0.637 0.372-1.307 0.451-2h5.102c0.552 0 1-0.448 1-1s-0.448-1-1-1zM10.639 11.938h6.298c0.552 0 1-0.448 1-1s-0.448-1-1-1h-4.884c1.263-1.233 2.983-2 4.884-2 3.518 0 6.409 2.617 6.898 6h-13.797c0.102-0.707 0.302-1.378 0.6-2zM16.938 21.938c-1.901 0-3.621-0.768-4.884-2h9.767c-1.262 1.232-2.982 2-4.883 2zM23.234 17.938h-12.595c-0.298-0.622-0.499-1.293-0.6-2h13.797c-0.102 0.707-0.302 1.378-0.602 2z"></path>
</symbol>
<symbol id="icon-wind" viewBox="0 0 32 32">
<path d="M26.938 12c-1.656 0-3 1.344-3 3 0 0.353 0.073 0.685 0.184 1h-19.184c-0.552 0-1 0.448-1 1s0.448 1 1 1h22c1.656 0 3-1.344 3-3s-1.344-3-3-3zM4.938 14h12c1.656 0 3-1.344 3-3s-1.344-3-3-3-3 1.344-3 3c0 0.353 0.073 0.685 0.184 1h-9.184c-0.552 0-1 0.448-1 1s0.448 1 1 1zM20.938 20c-0.059 0-0.115 0.013-0.174 0.018-0.039-0.003-0.072-0.018-0.111-0.018h-15.428c-0.711 0-1.287 0.448-1.287 1s0.576 1 1.287 1h12.897c-0.111 0.315-0.184 0.648-0.184 1 0 1.656 1.344 3 3 3s3-1.344 3-3-1.344-3-3-3z"></path>
</symbol>
<symbol id="icon-rainy" viewBox="0 0 32 32">
<path d="M25 4c-0.332 0-0.66 0.023-0.987 0.070-1.867-2.544-4.814-4.070-8.013-4.070s-6.145 1.526-8.013 4.070c-0.327-0.047-0.655-0.070-0.987-0.070-3.859 0-7 3.141-7 7s3.141 7 7 7c0.856 0 1.693-0.156 2.482-0.458 1.81 1.578 4.112 2.458 6.518 2.458 2.409 0 4.708-0.88 6.518-2.458 0.789 0.302 1.626 0.458 2.482 0.458 3.859 0 7-3.141 7-7s-3.141-7-7-7zM25 16c-1.070 0-2.057-0.344-2.871-0.917-1.467 1.768-3.652 2.917-6.129 2.917s-4.662-1.148-6.129-2.917c-0.813 0.573-1.801 0.917-2.871 0.917-2.762 0-5-2.238-5-5s2.238-5 5-5c0.676 0 1.316 0.138 1.902 0.38 1.327-2.588 3.991-4.38 7.098-4.38s5.771 1.792 7.096 4.38c0.587-0.242 1.229-0.38 1.904-0.38 2.762 0 5 2.238 5 5s-2.238 5-5 5zM14.063 30c0 1.105 0.895 2 2 2s2-0.895 2-2-2-4-2-4-2 2.895-2 4zM22 28c0 1.105 0.895 2 2 2s2-0.895 2-2-2-4-2-4-2 2.895-2 4zM6 24c0 1.105 0.894 2 2 2s2-0.895 2-2-2-4-2-4-2 2.895-2 4z"></path>
</symbol>
<symbol id="icon-cloudy" viewBox="0 0 32 32">
<path d="M32 15c0-3.073-2.5-5.572-5.573-5.572-0.15 0-0.298 0.007-0.447 0.018-1.445-1.803-3.624-2.874-5.98-2.874-2.355 0-4.535 1.070-5.98 2.874-0.148-0.012-0.298-0.018-0.449-0.018-3.070-0-5.57 2.499-5.57 5.572 0 0.322 0.043 0.631 0.094 0.94-0.034 0.044-0.074 0.085-0.107 0.13-0.327-0.047-0.655-0.070-0.987-0.070-3.859 0-7 3.141-7 7s3.141 7 7 7c0.856 0 1.693-0.156 2.482-0.458 1.81 1.578 4.112 2.458 6.518 2.458 2.409 0 4.708-0.88 6.518-2.458 0.789 0.302 1.626 0.458 2.482 0.458 3.859 0 7-3.141 7-7 0-1.605-0.565-3.068-1.479-4.25 0.911-0.994 1.479-2.302 1.479-3.75zM25 28c-1.070 0-2.057-0.344-2.871-0.917-1.467 1.768-3.652 2.917-6.129 2.917s-4.662-1.148-6.129-2.917c-0.813 0.573-1.801 0.917-2.871 0.917-2.762 0-5-2.238-5-5s2.238-5 5-5c0.676 0 1.316 0.137 1.902 0.379 0.035-0.066 0.078-0.125 0.113-0.189 0.352-0.642 0.785-1.23 1.292-1.753 1.443-1.495 3.448-2.438 5.693-2.438 3.107 0 5.771 1.792 7.096 4.379 0.353-0.145 0.729-0.238 1.117-0.301l0.787-0.078c0.771 0 1.492 0.19 2.145 0.5 0.707 0.338 1.314 0.836 1.79 1.449 0.656 0.845 1.065 1.897 1.065 3.051 0 2.762-2.238 5-5 5zM29.098 17.352c-1.155-0.841-2.563-1.352-4.098-1.352-0.332 0-0.66 0.023-0.987 0.070-1.867-2.544-4.814-4.070-8.013-4.070-2.133 0-4.145 0.69-5.809 1.896 0.467-1.428 1.796-2.467 3.379-2.467 0.484 0 0.941 0.098 1.359 0.271 0.949-1.848 2.852-3.126 5.070-3.126s4.122 1.279 5.068 3.126c0.421-0.173 0.88-0.271 1.359-0.271 1.974 0 3.573 1.599 3.573 3.572 0 0.905-0.348 1.721-0.902 2.351z"></path>
</symbol>
<symbol id="icon-compass" viewBox="0 0 32 32">
<path d="M16 0c-8.837 0-16 7.163-16 16 0 8.836 7.163 16 16 16 8.836 0 16-7.164 16-16 0-8.837-7.164-16-16-16zM16 28c-6.617 0-12-5.383-12-12s5.383-12 12-12 12 5.383 12 12-5.383 12-12 12zM10 22l8-4 4-8-8 4-4 8z"></path>
</symbol>
<symbol id="icon-Celsius" viewBox="0 0 32 32">
<path d="M13.073 11.023c-0.225-0.212-0.487-0.38-0.784-0.504-0.301-0.121-0.621-0.184-0.961-0.184-0.341 0-0.662 0.063-0.961 0.184-0.297 0.124-0.559 0.292-0.784 0.504-0.224 0.214-0.4 0.464-0.529 0.753-0.128 0.288-0.191 0.592-0.191 0.911 0 0.32 0.064 0.625 0.191 0.913 0.129 0.288 0.305 0.539 0.529 0.751 0.225 0.214 0.487 0.383 0.784 0.504 0.299 0.124 0.62 0.185 0.961 0.185 0.34 0 0.66-0.061 0.961-0.185 0.297-0.121 0.559-0.29 0.784-0.504 0.224-0.212 0.4-0.464 0.526-0.751 0.128-0.288 0.194-0.592 0.194-0.913 0-0.319-0.066-0.624-0.194-0.911-0.126-0.289-0.302-0.539-0.526-0.753zM12.113 13.44c-0.215 0.214-0.477 0.32-0.785 0.32s-0.57-0.107-0.785-0.32c-0.212-0.214-0.32-0.464-0.32-0.753 0-0.297 0.108-0.552 0.32-0.759 0.215-0.208 0.477-0.311 0.785-0.311s0.57 0.103 0.785 0.311c0.211 0.207 0.319 0.462 0.319 0.759 0 0.289-0.108 0.539-0.319 0.753zM20.953 19.487c-0.379 0.108-0.755 0.161-1.129 0.161-0.246 0-0.488-0.038-0.728-0.112-0.241-0.076-0.46-0.193-0.656-0.353-0.198-0.16-0.358-0.365-0.479-0.616-0.122-0.25-0.185-0.557-0.185-0.919v-3.216c0-0.362 0.062-0.672 0.185-0.928 0.121-0.255 0.279-0.464 0.471-0.624s0.409-0.275 0.656-0.344c0.245-0.069 0.49-0.104 0.736-0.104 0.374 0 0.758 0.055 1.152 0.168 0.395 0.112 0.762 0.312 1.104 0.6l1.056-1.697c-0.428-0.372-0.936-0.645-1.53-0.816-0.591-0.169-1.206-0.255-1.846-0.255-0.522 0-1.036 0.075-1.536 0.224-0.501 0.15-0.947 0.374-1.336 0.672-0.388 0.3-0.704 0.669-0.943 1.112-0.242 0.443-0.362 0.958-0.362 1.544v4.128c0 0.598 0.124 1.117 0.37 1.56 0.245 0.443 0.565 0.811 0.958 1.104 0.396 0.294 0.842 0.514 1.344 0.664 0.503 0.148 1.014 0.224 1.538 0.224 0.65 0 1.267-0.096 1.855-0.288 0.586-0.193 1.082-0.46 1.488-0.799l-1.040-1.697c-0.383 0.299-0.766 0.501-1.143 0.607z"></path>
</symbol>
</defs>
</svg>
